# xmcd
#
# Track frame offsets:
#	150
#	16987
#	33960
#	49442
#	66815
#	82295
#	96382
#	107325
#	125600
#	141515
#	162800
#	174747
#
# Disc length: 2535 seconds
#
# Revision: 0
# Processed by: cddbd v1.5.1PL0 Copyright (c) Steve Scherf et al.
# Submitted via: audiograbber 1.83.01
#
DISCID=a909e50c
DTITLE=The Guess Who - Platinum and Gold Collection
DYEAR=2003
DGENRE=Blues
TTITLE0=These Eyes
TTITLE1=No Time
TTITLE2=Undun
TTITLE3=American Woman
TTITLE4=Hand Me Down World
TTITLE5=Broken
TTITLE6=Albert Flasher
TTITLE7=Sour Suite
TTITLE8=Runnin' Back To Saskatoon
TTITLE9=Glamour Boy
TTITLE10=Star Baby
TTITLE11=Dancin' Fool
EXTD=
EXTT0=
EXTT1=
EXTT2=
EXTT3=
EXTT4=
EXTT5=
EXTT6=
EXTT7=
EXTT8=
EXTT9=
EXTT10=
EXTT11=
PLAYORDER=
